G04*
G04 #@! TF.GenerationSoftware,Altium Limited,Altium Designer,21.3.2 (30)*
G04*
G04 Layer_Color=65535*
%FSLAX44Y44*%
%MOMM*%
G71*
G04*
G04 #@! TF.SameCoordinates,D4D03A8D-4406-486D-8716-9BE66622953D*
G04*
G04*
G04 #@! TF.FilePolarity,Positive*
G04*
G01*
G75*
%ADD10C,0.3000*%
%ADD11C,0.2000*%
%ADD12C,0.2540*%
%ADD13C,0.6350*%
%ADD14C,0.1016*%
%ADD15C,0.1270*%
D10*
X975128Y41655D02*
G03*
X967363Y55103I-28978J-7765D01*
G01*
X972131Y18890D02*
G03*
X976150Y33890I-25981J15000D01*
G01*
X953915Y4912D02*
G03*
X967363Y12677I-7765J28978D01*
G01*
X931150Y7909D02*
G03*
X946150Y3890I15000J25981D01*
G01*
X917172Y26125D02*
G03*
X924937Y12677I28978J7765D01*
G01*
X920169Y48890D02*
G03*
X916150Y33890I25981J-15000D01*
G01*
X938385Y62868D02*
G03*
X924937Y55103I7765J-28978D01*
G01*
X961150Y59871D02*
G03*
X946150Y63890I-15000J-25981D01*
G01*
X961150Y59871D02*
G03*
X946150Y63890I-15000J-25981D01*
G01*
X56660Y681301D02*
G03*
X41660Y685320I-15000J-25981D01*
G01*
X56660Y681301D02*
G03*
X41660Y685320I-15000J-25981D01*
G01*
X33895Y684298D02*
G03*
X20447Y676533I7765J-28978D01*
G01*
X15679Y670320D02*
G03*
X11660Y655320I25981J-15000D01*
G01*
X12682Y647555D02*
G03*
X20447Y634107I28978J7765D01*
G01*
X26660Y629339D02*
G03*
X41660Y625320I15000J25981D01*
G01*
X49425Y626342D02*
G03*
X62873Y634107I-7765J28978D01*
G01*
X67641Y640320D02*
G03*
X71660Y655320I-25981J15000D01*
G01*
X70638Y663085D02*
G03*
X62873Y676533I-28978J-7765D01*
G01*
X53100Y64081D02*
G03*
X38100Y68100I-15000J-25981D01*
G01*
X53100Y64081D02*
G03*
X38100Y68100I-15000J-25981D01*
G01*
X30335Y67078D02*
G03*
X16887Y59313I7765J-28978D01*
G01*
X12119Y53100D02*
G03*
X8100Y38100I25981J-15000D01*
G01*
X9122Y30335D02*
G03*
X16887Y16887I28978J7765D01*
G01*
X23100Y12119D02*
G03*
X38100Y8100I15000J25981D01*
G01*
X45865Y9122D02*
G03*
X59313Y16887I-7765J28978D01*
G01*
X64081Y23100D02*
G03*
X68100Y38100I-25981J15000D01*
G01*
X67078Y45865D02*
G03*
X59313Y59313I-28978J-7765D01*
G01*
X964960Y680901D02*
G03*
X949960Y684920I-15000J-25981D01*
G01*
X964960Y680901D02*
G03*
X949960Y684920I-15000J-25981D01*
G01*
X942195Y683898D02*
G03*
X928747Y676133I7765J-28978D01*
G01*
X923979Y669920D02*
G03*
X919960Y654920I25981J-15000D01*
G01*
X920982Y647155D02*
G03*
X928747Y633707I28978J7765D01*
G01*
X934960Y628939D02*
G03*
X949960Y624920I15000J25981D01*
G01*
X957725Y625942D02*
G03*
X971173Y633707I-7765J28978D01*
G01*
X975941Y639920D02*
G03*
X979960Y654920I-25981J15000D01*
G01*
X978938Y662685D02*
G03*
X971173Y676133I-28978J-7765D01*
G01*
D11*
X519830Y5820D02*
G03*
X519830Y5820I-1000J0D01*
G01*
X749700Y4550D02*
G03*
X749700Y4550I-1000J0D01*
G01*
X802640Y290830D02*
Y316230D01*
X701040Y290830D02*
X802640D01*
X701040Y316230D02*
X802640D01*
X701040Y290830D02*
Y316230D01*
X726440Y290830D02*
Y316230D01*
X664704Y301498D02*
Y313436D01*
X615936D02*
X664704D01*
X615936Y293624D02*
Y313436D01*
X636764Y296926D02*
X643876D01*
X636764Y310388D02*
X643876D01*
X615936Y293624D02*
X664704D01*
Y301498D01*
X530846Y204724D02*
Y216662D01*
Y204724D02*
X579614D01*
Y224536D01*
X551674Y221234D02*
X558786D01*
X551674Y207772D02*
X558786D01*
X530846Y224536D02*
X579614D01*
X530846Y216662D02*
Y224536D01*
X287020Y36830D02*
Y62230D01*
X106718Y36830D02*
Y62230D01*
X314918D01*
Y36830D02*
Y62230D01*
X106718Y36830D02*
X314918D01*
X756920Y180086D02*
Y185420D01*
X810260D01*
X780034Y167894D02*
X787146D01*
X780034Y182372D02*
X787146D01*
X810260Y165100D02*
Y185420D01*
X756920Y165100D02*
X810260D01*
X756920D02*
Y180086D01*
X760716Y204724D02*
Y216662D01*
Y204724D02*
X809484D01*
Y224536D01*
X781544Y221234D02*
X788656D01*
X781544Y207772D02*
X788656D01*
X760716Y224536D02*
X809484D01*
X760716Y216662D02*
Y224536D01*
X527050Y180086D02*
Y185420D01*
X580390D01*
X550164Y167894D02*
X557276D01*
X550164Y182372D02*
X557276D01*
X580390Y165100D02*
Y185420D01*
X527050Y165100D02*
X580390D01*
X527050D02*
Y180086D01*
X309880Y7620D02*
Y12954D01*
X256540Y7620D02*
X309880D01*
X279654Y25146D02*
X286766D01*
X279654Y10668D02*
X286766D01*
X256540Y7620D02*
Y27940D01*
X309880D01*
Y12954D02*
Y27940D01*
D12*
X437642Y524256D02*
X488442D01*
X437642Y448056D02*
Y524256D01*
Y448056D02*
X488442D01*
Y446786D02*
Y522986D01*
X954151Y537210D02*
X1011301D01*
X954151Y435610D02*
Y537210D01*
Y435610D02*
X1011301D01*
X437642Y470713D02*
Y524053D01*
X454183Y371556D02*
X454660Y600202D01*
X437642Y524053D02*
X488442D01*
Y469443D02*
Y522783D01*
X454533Y371602D02*
X1011936Y372110D01*
Y600710D01*
X954151Y537210D02*
X1011301D01*
X454533Y600075D02*
X1011936Y600710D01*
X502543Y312068D02*
Y300072D01*
X508541D01*
X510540Y302071D01*
Y310069D01*
X508541Y312068D01*
X502543D01*
X514539Y300072D02*
X518537D01*
X516538D01*
Y312068D01*
X514539Y310069D01*
X441583Y632108D02*
Y622111D01*
X443582Y620112D01*
X447581D01*
X449580Y622111D01*
Y632108D01*
X453579Y620112D02*
X457577D01*
X455578D01*
Y632108D01*
X453579Y630109D01*
X788833Y248920D02*
X786834Y250919D01*
Y254918D01*
X788833Y256917D01*
X790833D01*
X792832Y254918D01*
Y252919D01*
Y254918D01*
X794831Y256917D01*
X796831D01*
X798830Y254918D01*
Y250919D01*
X796831Y248920D01*
X786834Y260916D02*
X794831D01*
X798830Y264915D01*
X794831Y268913D01*
X786834D01*
X788833Y272912D02*
X786834Y274912D01*
Y278910D01*
X788833Y280910D01*
X790833D01*
X792832Y278910D01*
Y276911D01*
Y278910D01*
X794831Y280910D01*
X796831D01*
X798830Y278910D01*
Y274912D01*
X796831Y272912D01*
X734764Y262890D02*
Y270887D01*
Y266889D01*
X746760D01*
X734764Y274886D02*
X746760Y282883D01*
X734764D02*
X746760Y274886D01*
X710093Y256917D02*
X708094Y254918D01*
Y250919D01*
X710093Y248920D01*
X718091D01*
X720090Y250919D01*
Y254918D01*
X718091Y256917D01*
X714092D01*
Y252919D01*
X720090Y260916D02*
X708094D01*
X720090Y268913D01*
X708094D01*
Y272912D02*
X720090D01*
Y278910D01*
X718091Y280910D01*
X710093D01*
X708094Y278910D01*
Y272912D01*
X773430Y261620D02*
X761434D01*
Y267618D01*
X763433Y269617D01*
X767432D01*
X769431Y267618D01*
Y261620D01*
Y265619D02*
X773430Y269617D01*
X761434Y273616D02*
X773430Y281614D01*
X761434D02*
X773430Y273616D01*
X704473Y334928D02*
Y322932D01*
Y328930D01*
X712470D01*
Y334928D01*
Y322932D01*
X716469D02*
X720467D01*
X718468D01*
Y334928D01*
X716469Y332929D01*
X598711Y177989D02*
X596711Y179988D01*
X592713D01*
X590713Y177989D01*
Y169991D01*
X592713Y167992D01*
X596711D01*
X598711Y169991D01*
X602709Y179988D02*
X610707D01*
Y177989D01*
X602709Y169991D01*
Y167992D01*
X733331Y179259D02*
X731331Y181258D01*
X727333D01*
X725333Y179259D01*
Y171261D01*
X727333Y169262D01*
X731331D01*
X733331Y171261D01*
X737329Y179259D02*
X739329Y181258D01*
X743327D01*
X745327Y179259D01*
Y177259D01*
X743327Y175260D01*
X745327Y173261D01*
Y171261D01*
X743327Y169262D01*
X739329D01*
X737329Y171261D01*
Y173261D01*
X739329Y175260D01*
X737329Y177259D01*
Y179259D01*
X739329Y175260D02*
X743327D01*
X825500Y252378D02*
X821501D01*
X823501D01*
Y242381D01*
X821501Y240382D01*
X819502D01*
X817503Y242381D01*
X829499Y240382D02*
X833497D01*
X831498D01*
Y252378D01*
X829499Y250379D01*
X468630Y143699D02*
X466631Y145698D01*
X462632D01*
X460633Y143699D01*
Y141699D01*
X462632Y139700D01*
X466631D01*
X468630Y137701D01*
Y135701D01*
X466631Y133702D01*
X462632D01*
X460633Y135701D01*
X472629Y133702D02*
X476627D01*
X474628D01*
Y145698D01*
X472629Y143699D01*
X621193Y273402D02*
Y285398D01*
X627191D01*
X629191Y283399D01*
Y279400D01*
X627191Y277401D01*
X621193D01*
X625192D02*
X629191Y273402D01*
X633189Y283399D02*
X635189Y285398D01*
X639187D01*
X641187Y283399D01*
Y281399D01*
X639187Y279400D01*
X637188D01*
X639187D01*
X641187Y277401D01*
Y275401D01*
X639187Y273402D01*
X635189D01*
X633189Y275401D01*
X688881Y143699D02*
X686881Y145698D01*
X682883D01*
X680883Y143699D01*
Y141699D01*
X682883Y139700D01*
X686881D01*
X688881Y137701D01*
Y135701D01*
X686881Y133702D01*
X682883D01*
X680883Y135701D01*
X700877Y133702D02*
X692879D01*
X700877Y141699D01*
Y143699D01*
X698877Y145698D01*
X694879D01*
X692879Y143699D01*
X229141Y23049D02*
X227141Y25048D01*
X223143D01*
X221143Y23049D01*
Y15051D01*
X223143Y13052D01*
X227141D01*
X229141Y15051D01*
X233139D02*
X235139Y13052D01*
X239137D01*
X241137Y15051D01*
Y23049D01*
X239137Y25048D01*
X235139D01*
X233139Y23049D01*
Y21049D01*
X235139Y19050D01*
X241137D01*
X590173Y208632D02*
Y220628D01*
X596171D01*
X598170Y218629D01*
Y214630D01*
X596171Y212631D01*
X590173D01*
X594171D02*
X598170Y208632D01*
X602169D02*
X606167D01*
X604168D01*
Y220628D01*
X602169Y218629D01*
X725333Y209902D02*
Y221898D01*
X731331D01*
X733331Y219899D01*
Y215900D01*
X731331Y213901D01*
X725333D01*
X729332D02*
X733331Y209902D01*
X745327D02*
X737329D01*
X745327Y217899D01*
Y219899D01*
X743327Y221898D01*
X739329D01*
X737329Y219899D01*
X109383Y80928D02*
Y68932D01*
Y74930D01*
X117381D01*
Y80928D01*
Y68932D01*
X121379Y78929D02*
X123379Y80928D01*
X127377D01*
X129377Y78929D01*
Y76929D01*
X127377Y74930D01*
X125378D01*
X127377D01*
X129377Y72931D01*
Y70931D01*
X127377Y68932D01*
X123379D01*
X121379Y70931D01*
X920913Y229518D02*
Y217522D01*
Y223520D01*
X928911D01*
Y229518D01*
Y217522D01*
X940907D02*
X932909D01*
X940907Y225519D01*
Y227519D01*
X938907Y229518D01*
X934909D01*
X932909Y227519D01*
D13*
X976370Y81880D02*
Y207680D01*
X919170D02*
X976370D01*
X919170Y81880D02*
Y207680D01*
Y81880D02*
X976370D01*
D14*
X536956Y313182D02*
Y313690D01*
X569976Y312928D02*
Y313690D01*
Y293370D02*
Y293878D01*
X536956Y293370D02*
Y293878D01*
Y313690D02*
X569976D01*
X536956Y293370D02*
X569976D01*
D15*
X484830Y23820D02*
X504830D01*
X484830D02*
Y143820D01*
X504830D01*
X584830Y23820D02*
X604830D01*
Y143820D01*
X584830D02*
X604830D01*
X714700Y22550D02*
X734700D01*
X714700D02*
Y142550D01*
X734700D01*
X814700Y22550D02*
X834700D01*
Y142550D01*
X814700D02*
X834700D01*
X840050Y236940D02*
X983050D01*
X840050D02*
Y258940D01*
Y304940D02*
Y326940D01*
X849050D01*
X897050D02*
X983050D01*
Y236940D02*
Y326940D01*
M02*
