G04*
G04 #@! TF.GenerationSoftware,Altium Limited,Altium Designer,21.3.2 (30)*
G04*
G04 Layer_Physical_Order=1*
G04 Layer_Color=255*
%FSLAX44Y44*%
%MOMM*%
G71*
G04*
G04 #@! TF.SameCoordinates,D4D03A8D-4406-486D-8716-9BE66622953D*
G04*
G04*
G04 #@! TF.FilePolarity,Positive*
G04*
G01*
G75*
%ADD10C,0.3000*%
%ADD16R,1.5000X1.6000*%
%ADD17R,1.5240X1.6510*%
%ADD18R,1.7000X1.7000*%
%ADD34C,0.5000*%
%ADD35C,5.0000*%
%ADD36O,2.0000X2.0000*%
%ADD37C,1.6000*%
%ADD38R,1.6000X1.6000*%
%ADD39R,1.6000X1.6000*%
%ADD40R,1.8750X1.8750*%
%ADD41C,1.8750*%
%ADD42C,1.8500*%
%ADD43R,1.5200X1.5200*%
%ADD44C,1.5200*%
%ADD45O,2.0000X4.0000*%
%ADD46O,4.7000X2.3500*%
G36*
X985769Y4231D02*
X4231D01*
Y695769D01*
X985769D01*
Y4231D01*
D02*
G37*
%LPC*%
G36*
X952164Y683320D02*
X947756D01*
X943403Y682630D01*
X939212Y681269D01*
X935285Y679268D01*
X931719Y676677D01*
X928603Y673561D01*
X926012Y669995D01*
X924011Y666068D01*
X922650Y661877D01*
X921960Y657524D01*
Y653116D01*
X922650Y648763D01*
X924011Y644572D01*
X926012Y640645D01*
X928603Y637079D01*
X931719Y633963D01*
X935285Y631372D01*
X939212Y629371D01*
X943403Y628009D01*
X947756Y627320D01*
X952164D01*
X956517Y628009D01*
X960708Y629371D01*
X964635Y631372D01*
X968201Y633963D01*
X971317Y637079D01*
X973908Y640645D01*
X975909Y644572D01*
X977271Y648763D01*
X977960Y653116D01*
Y657524D01*
X977271Y661877D01*
X975909Y666068D01*
X973908Y669995D01*
X971317Y673561D01*
X968201Y676677D01*
X964635Y679268D01*
X960708Y681269D01*
X956517Y682630D01*
X952164Y683320D01*
D02*
G37*
G36*
X43864D02*
X39456D01*
X35103Y682630D01*
X30912Y681269D01*
X26985Y679268D01*
X23419Y676677D01*
X20303Y673561D01*
X17712Y669995D01*
X15711Y666068D01*
X14349Y661877D01*
X13660Y657524D01*
Y653116D01*
X14349Y648763D01*
X15711Y644572D01*
X17712Y640645D01*
X20303Y637079D01*
X23419Y633963D01*
X26985Y631372D01*
X30912Y629371D01*
X35103Y628009D01*
X39456Y627320D01*
X43864D01*
X48217Y628009D01*
X52408Y629371D01*
X56335Y631372D01*
X59901Y633963D01*
X63017Y637079D01*
X65608Y640645D01*
X67609Y644572D01*
X68970Y648763D01*
X69660Y653116D01*
Y657524D01*
X68970Y661877D01*
X67609Y666068D01*
X65608Y669995D01*
X63017Y673561D01*
X59901Y676677D01*
X56335Y679268D01*
X52408Y681269D01*
X48217Y682630D01*
X43864Y683320D01*
D02*
G37*
G36*
X699770Y608858D02*
X342900D01*
X340754Y608431D01*
X338935Y607215D01*
X194155Y462435D01*
X192939Y460616D01*
X192512Y458470D01*
Y58532D01*
X191611Y58012D01*
X189638Y56038D01*
X188242Y53621D01*
X187520Y50925D01*
Y48134D01*
X188242Y45439D01*
X189638Y43021D01*
X191611Y41048D01*
X194029Y39652D01*
X196724Y38930D01*
X199515D01*
X202211Y39652D01*
X204629Y41048D01*
X206602Y43021D01*
X207998Y45439D01*
X208720Y48134D01*
Y50925D01*
X207998Y53621D01*
X206602Y56038D01*
X204629Y58012D01*
X203728Y58532D01*
Y456147D01*
X345223Y597642D01*
X697447D01*
X701782Y593307D01*
Y574149D01*
X700725Y573712D01*
X698010Y571628D01*
X695926Y568912D01*
X695269Y567325D01*
X693894D01*
X693237Y568912D01*
X691153Y571628D01*
X688438Y573712D01*
X685275Y575021D01*
X681881Y575468D01*
X678488Y575021D01*
X675325Y573712D01*
X672610Y571628D01*
X670526Y568912D01*
X669869Y567325D01*
X668494D01*
X667837Y568912D01*
X665753Y571628D01*
X663038Y573712D01*
X659875Y575021D01*
X656481Y575468D01*
X653088Y575021D01*
X649925Y573712D01*
X647210Y571628D01*
X645126Y568912D01*
X644469Y567325D01*
X643094D01*
X642437Y568912D01*
X640353Y571628D01*
X637638Y573712D01*
X634475Y575021D01*
X631082Y575468D01*
X627688Y575021D01*
X624525Y573712D01*
X621810Y571628D01*
X619726Y568912D01*
X619069Y567325D01*
X617694D01*
X617037Y568912D01*
X614953Y571628D01*
X612238Y573712D01*
X609075Y575021D01*
X605681Y575468D01*
X602288Y575021D01*
X599125Y573712D01*
X596410Y571628D01*
X594326Y568912D01*
X593669Y567325D01*
X592294D01*
X591637Y568912D01*
X589553Y571628D01*
X586838Y573712D01*
X583675Y575021D01*
X580281Y575468D01*
X576888Y575021D01*
X573725Y573712D01*
X571010Y571628D01*
X568926Y568912D01*
X568269Y567325D01*
X566894D01*
X566237Y568912D01*
X564153Y571628D01*
X561438Y573712D01*
X558275Y575021D01*
X554882Y575468D01*
X551488Y575021D01*
X548325Y573712D01*
X545610Y571628D01*
X543526Y568912D01*
X542869Y567325D01*
X541494D01*
X540837Y568912D01*
X538753Y571628D01*
X536038Y573712D01*
X532875Y575021D01*
X529482Y575468D01*
X526088Y575021D01*
X522925Y573712D01*
X520210Y571628D01*
X518126Y568912D01*
X517220Y566724D01*
X515845D01*
X515035Y568680D01*
X513025Y571300D01*
X510406Y573310D01*
X507355Y574573D01*
X505351Y574837D01*
Y562356D01*
Y549875D01*
X507355Y550139D01*
X510406Y551402D01*
X513025Y553412D01*
X515035Y556032D01*
X515845Y557988D01*
X517220D01*
X518126Y555800D01*
X520210Y553084D01*
X522925Y551001D01*
X523874Y550608D01*
Y475508D01*
X458470D01*
X456324Y475081D01*
X454505Y473865D01*
X399895Y419255D01*
X398679Y417436D01*
X398252Y415290D01*
Y266398D01*
X398679Y264252D01*
X399895Y262432D01*
X447697Y214630D01*
X295604Y62537D01*
X294388Y60717D01*
X294271Y60130D01*
X289120D01*
Y38930D01*
X294112D01*
Y29280D01*
X288210D01*
Y6280D01*
X311210D01*
Y29280D01*
X305328D01*
Y38930D01*
X310320D01*
Y43922D01*
X638810D01*
X640956Y44349D01*
X642775Y45565D01*
X700823Y103612D01*
X826770D01*
X828916Y104039D01*
X830735Y105255D01*
X834545Y109065D01*
X835761Y110884D01*
X836188Y113030D01*
Y216952D01*
X835761Y219098D01*
X834545Y220917D01*
X795548Y259914D01*
Y294066D01*
X796694Y294728D01*
X798742Y296776D01*
X800190Y299284D01*
X800940Y302082D01*
Y304978D01*
X800190Y307776D01*
X798742Y310284D01*
X796694Y312332D01*
X794186Y313780D01*
X791388Y314530D01*
X788492D01*
X785694Y313780D01*
X783186Y312332D01*
X781138Y310284D01*
X779690Y307776D01*
X778940Y304978D01*
Y302082D01*
X779690Y299284D01*
X781138Y296776D01*
X783186Y294728D01*
X784332Y294066D01*
Y257592D01*
X784759Y255446D01*
X785975Y253626D01*
X824972Y214629D01*
Y115353D01*
X824447Y114828D01*
X700823D01*
X697758Y117893D01*
Y208497D01*
X698283Y209022D01*
X759600D01*
Y203630D01*
X780600D01*
Y224403D01*
X781870Y224930D01*
X788329Y218470D01*
X788419Y218020D01*
X789600Y216252D01*
Y203630D01*
X795512D01*
Y186760D01*
X788590D01*
Y163760D01*
X795112D01*
Y156632D01*
X794923Y156582D01*
X792102Y154952D01*
X789798Y152648D01*
X788168Y149827D01*
X787325Y146679D01*
Y143421D01*
X788168Y140273D01*
X789798Y137452D01*
X792102Y135148D01*
X794923Y133518D01*
X798071Y132675D01*
X801329D01*
X804477Y133518D01*
X807298Y135148D01*
X809602Y137452D01*
X811232Y140273D01*
X812075Y143421D01*
Y146679D01*
X811232Y149827D01*
X809602Y152648D01*
X807298Y154952D01*
X804477Y156582D01*
X804288Y156632D01*
Y163760D01*
X811590D01*
Y186760D01*
X804688D01*
Y203630D01*
X810600D01*
Y225630D01*
X797031D01*
X760885Y261775D01*
X759066Y262991D01*
X756920Y263418D01*
X529373D01*
X509798Y282993D01*
Y398462D01*
X510746Y398854D01*
X513462Y400938D01*
X515546Y403654D01*
X516203Y405241D01*
X517577D01*
X518234Y403654D01*
X520318Y400938D01*
X523034Y398854D01*
X526196Y397545D01*
X529590Y397098D01*
X532984Y397545D01*
X536146Y398854D01*
X538862Y400938D01*
X540946Y403654D01*
X541603Y405241D01*
X542977D01*
X543634Y403654D01*
X545718Y400938D01*
X548434Y398854D01*
X549382Y398462D01*
Y340360D01*
X549809Y338214D01*
X551025Y336395D01*
X556105Y331315D01*
X557924Y330099D01*
X560070Y329672D01*
X641567D01*
X649712Y321527D01*
Y314530D01*
X644820D01*
Y292530D01*
X665820D01*
Y314530D01*
X660928D01*
Y323850D01*
X660501Y325996D01*
X659285Y327815D01*
X647855Y339245D01*
X646036Y340461D01*
X643890Y340888D01*
X562393D01*
X560598Y342683D01*
Y398462D01*
X561546Y398854D01*
X564262Y400938D01*
X566345Y403654D01*
X567003Y405241D01*
X568377D01*
X569035Y403654D01*
X571118Y400938D01*
X573834Y398854D01*
X576996Y397545D01*
X580390Y397098D01*
X583784Y397545D01*
X586946Y398854D01*
X589662Y400938D01*
X591745Y403654D01*
X592403Y405241D01*
X593777D01*
X594435Y403654D01*
X596518Y400938D01*
X599234Y398854D01*
X600182Y398462D01*
Y367030D01*
X600609Y364884D01*
X601825Y363065D01*
X613255Y351635D01*
X615074Y350419D01*
X617220Y349992D01*
X731737D01*
X733532Y348197D01*
Y312994D01*
X732386Y312332D01*
X730338Y310284D01*
X728890Y307776D01*
X728140Y304978D01*
Y302082D01*
X728890Y299284D01*
X730338Y296776D01*
X732386Y294728D01*
X734894Y293280D01*
X737692Y292530D01*
X740588D01*
X743386Y293280D01*
X745894Y294728D01*
X747942Y296776D01*
X749390Y299284D01*
X750140Y302082D01*
Y304978D01*
X749390Y307776D01*
X747942Y310284D01*
X745894Y312332D01*
X744748Y312994D01*
Y350520D01*
X744321Y352666D01*
X743105Y354485D01*
X738708Y358882D01*
X739234Y360152D01*
X754597D01*
X758932Y355817D01*
Y312994D01*
X757786Y312332D01*
X755738Y310284D01*
X754290Y307776D01*
X753540Y304978D01*
Y302082D01*
X754290Y299284D01*
X755738Y296776D01*
X757786Y294728D01*
X760294Y293280D01*
X763092Y292530D01*
X765988D01*
X768786Y293280D01*
X771294Y294728D01*
X773342Y296776D01*
X774790Y299284D01*
X775540Y302082D01*
Y304978D01*
X774790Y307776D01*
X773342Y310284D01*
X771294Y312332D01*
X770148Y312994D01*
Y358140D01*
X769721Y360286D01*
X768505Y362105D01*
X760885Y369725D01*
X759066Y370941D01*
X756920Y371368D01*
X637323D01*
X636798Y371893D01*
Y398462D01*
X637746Y398854D01*
X640462Y400938D01*
X642545Y403654D01*
X643203Y405241D01*
X644577D01*
X645235Y403654D01*
X647318Y400938D01*
X650034Y398854D01*
X653196Y397545D01*
X656590Y397098D01*
X659984Y397545D01*
X663146Y398854D01*
X665862Y400938D01*
X667945Y403654D01*
X668603Y405241D01*
X669977D01*
X670635Y403654D01*
X672718Y400938D01*
X675434Y398854D01*
X678596Y397545D01*
X681990Y397098D01*
X685384Y397545D01*
X688546Y398854D01*
X691262Y400938D01*
X693345Y403654D01*
X694003Y405241D01*
X695377D01*
X696034Y403654D01*
X698118Y400938D01*
X700834Y398854D01*
X703996Y397545D01*
X707390Y397098D01*
X710784Y397545D01*
X713946Y398854D01*
X716662Y400938D01*
X718745Y403654D01*
X719403Y405241D01*
X720777D01*
X721434Y403654D01*
X723518Y400938D01*
X726234Y398854D01*
X729396Y397545D01*
X732790Y397098D01*
X736184Y397545D01*
X739346Y398854D01*
X742062Y400938D01*
X744146Y403654D01*
X744803Y405241D01*
X746177D01*
X746834Y403654D01*
X748918Y400938D01*
X751634Y398854D01*
X754796Y397545D01*
X758190Y397098D01*
X761584Y397545D01*
X764746Y398854D01*
X767462Y400938D01*
X769546Y403654D01*
X770203Y405241D01*
X771577D01*
X772234Y403654D01*
X774318Y400938D01*
X777034Y398854D01*
X780196Y397545D01*
X783590Y397098D01*
X786984Y397545D01*
X790146Y398854D01*
X792862Y400938D01*
X794946Y403654D01*
X795603Y405241D01*
X796977D01*
X797635Y403654D01*
X799718Y400938D01*
X802434Y398854D01*
X803382Y398462D01*
Y364490D01*
X803809Y362344D01*
X805025Y360525D01*
X808835Y356715D01*
X810654Y355499D01*
X812800Y355072D01*
X887947D01*
X948162Y294857D01*
Y192344D01*
X947016Y191682D01*
X944968Y189634D01*
X943520Y187126D01*
X942770Y184328D01*
Y181432D01*
X943520Y178634D01*
X944968Y176126D01*
X947016Y174078D01*
X949524Y172630D01*
X952322Y171880D01*
X955218D01*
X958016Y172630D01*
X960524Y174078D01*
X962132Y175686D01*
X963402Y175160D01*
Y165200D01*
X962132Y164674D01*
X960524Y166282D01*
X958016Y167730D01*
X955218Y168480D01*
X952322D01*
X949524Y167730D01*
X947016Y166282D01*
X944968Y164234D01*
X943520Y161726D01*
X942770Y158928D01*
Y156032D01*
X943520Y153234D01*
X944968Y150726D01*
X947016Y148678D01*
X949524Y147230D01*
X952322Y146480D01*
X955218D01*
X958016Y147230D01*
X960524Y148678D01*
X962572Y150726D01*
X963376Y152117D01*
X966081D01*
X968227Y152544D01*
X970046Y153760D01*
X972975Y156689D01*
X974191Y158508D01*
X974618Y160654D01*
Y298450D01*
X974191Y300596D01*
X972975Y302415D01*
X900585Y374805D01*
X898766Y376021D01*
X896620Y376448D01*
X839998D01*
Y398462D01*
X840946Y398854D01*
X843662Y400938D01*
X845745Y403654D01*
X846403Y405241D01*
X847777D01*
X848435Y403654D01*
X850518Y400938D01*
X853234Y398854D01*
X856396Y397545D01*
X859790Y397098D01*
X863184Y397545D01*
X866346Y398854D01*
X869062Y400938D01*
X871145Y403654D01*
X871803Y405241D01*
X873177D01*
X873835Y403654D01*
X875918Y400938D01*
X878634Y398854D01*
X881796Y397545D01*
X885190Y397098D01*
X888584Y397545D01*
X891746Y398854D01*
X894462Y400938D01*
X896545Y403654D01*
X897203Y405241D01*
X898577D01*
X899234Y403654D01*
X901318Y400938D01*
X904034Y398854D01*
X907196Y397545D01*
X910590Y397098D01*
X913984Y397545D01*
X917146Y398854D01*
X919862Y400938D01*
X921945Y403654D01*
X922852Y405842D01*
X924226D01*
X925036Y403886D01*
X927046Y401266D01*
X929666Y399256D01*
X932716Y397993D01*
X934720Y397729D01*
Y410210D01*
Y422691D01*
X932716Y422427D01*
X929666Y421164D01*
X927046Y419154D01*
X925036Y416534D01*
X924226Y414578D01*
X922852D01*
X921945Y416766D01*
X919862Y419482D01*
X917146Y421566D01*
X913984Y422875D01*
X910590Y423322D01*
X907196Y422875D01*
X904034Y421566D01*
X901318Y419482D01*
X899234Y416766D01*
X898577Y415179D01*
X897203D01*
X896545Y416766D01*
X894462Y419482D01*
X891746Y421566D01*
X888584Y422875D01*
X885190Y423322D01*
X881796Y422875D01*
X878634Y421566D01*
X875918Y419482D01*
X873835Y416766D01*
X873177Y415179D01*
X871803D01*
X871145Y416766D01*
X869062Y419482D01*
X866346Y421566D01*
X863184Y422875D01*
X859790Y423322D01*
X856396Y422875D01*
X853234Y421566D01*
X850518Y419482D01*
X848435Y416766D01*
X847777Y415179D01*
X846403D01*
X845745Y416766D01*
X843662Y419482D01*
X840946Y421566D01*
X837784Y422875D01*
X834390Y423322D01*
X830996Y422875D01*
X827834Y421566D01*
X825118Y419482D01*
X823035Y416766D01*
X822377Y415179D01*
X821003D01*
X820346Y416766D01*
X818262Y419482D01*
X815546Y421566D01*
X812384Y422875D01*
X808990Y423322D01*
X805596Y422875D01*
X802434Y421566D01*
X799718Y419482D01*
X797635Y416766D01*
X796977Y415179D01*
X795603D01*
X794946Y416766D01*
X792862Y419482D01*
X790146Y421566D01*
X786984Y422875D01*
X783590Y423322D01*
X780196Y422875D01*
X777034Y421566D01*
X774318Y419482D01*
X772234Y416766D01*
X771577Y415179D01*
X770203D01*
X769546Y416766D01*
X767462Y419482D01*
X764746Y421566D01*
X761584Y422875D01*
X758190Y423322D01*
X754796Y422875D01*
X751634Y421566D01*
X748918Y419482D01*
X746834Y416766D01*
X746177Y415179D01*
X744803D01*
X744146Y416766D01*
X742062Y419482D01*
X739346Y421566D01*
X736184Y422875D01*
X732790Y423322D01*
X729396Y422875D01*
X726234Y421566D01*
X723518Y419482D01*
X721434Y416766D01*
X720777Y415179D01*
X719403D01*
X718745Y416766D01*
X716662Y419482D01*
X713946Y421566D01*
X710784Y422875D01*
X707390Y423322D01*
X703996Y422875D01*
X700834Y421566D01*
X698118Y419482D01*
X696034Y416766D01*
X695377Y415179D01*
X694003D01*
X693345Y416766D01*
X691262Y419482D01*
X688546Y421566D01*
X685384Y422875D01*
X681990Y423322D01*
X678596Y422875D01*
X675434Y421566D01*
X672718Y419482D01*
X670635Y416766D01*
X669977Y415179D01*
X668603D01*
X667945Y416766D01*
X665862Y419482D01*
X663146Y421566D01*
X659984Y422875D01*
X656590Y423322D01*
X653196Y422875D01*
X650034Y421566D01*
X647318Y419482D01*
X645235Y416766D01*
X644577Y415179D01*
X643203D01*
X642545Y416766D01*
X640462Y419482D01*
X637746Y421566D01*
X634584Y422875D01*
X631190Y423322D01*
X627796Y422875D01*
X624634Y421566D01*
X621918Y419482D01*
X619835Y416766D01*
X619177Y415179D01*
X617803D01*
X617146Y416766D01*
X615062Y419482D01*
X612346Y421566D01*
X609184Y422875D01*
X605790Y423322D01*
X602396Y422875D01*
X599234Y421566D01*
X596518Y419482D01*
X594435Y416766D01*
X593777Y415179D01*
X592403D01*
X591745Y416766D01*
X589662Y419482D01*
X586946Y421566D01*
X583784Y422875D01*
X580390Y423322D01*
X576996Y422875D01*
X573834Y421566D01*
X571118Y419482D01*
X569035Y416766D01*
X568377Y415179D01*
X567003D01*
X566345Y416766D01*
X564262Y419482D01*
X561546Y421566D01*
X558384Y422875D01*
X554990Y423322D01*
X551596Y422875D01*
X548434Y421566D01*
X545718Y419482D01*
X543634Y416766D01*
X542977Y415179D01*
X541603D01*
X540946Y416766D01*
X538862Y419482D01*
X536146Y421566D01*
X532984Y422875D01*
X529590Y423322D01*
X526196Y422875D01*
X523034Y421566D01*
X520318Y419482D01*
X518234Y416766D01*
X517577Y415179D01*
X516203D01*
X515546Y416766D01*
X513462Y419482D01*
X510746Y421566D01*
X507584Y422875D01*
X504190Y423322D01*
X500796Y422875D01*
X497634Y421566D01*
X494918Y419482D01*
X492835Y416766D01*
X492050Y414873D01*
X490676D01*
X489892Y416766D01*
X487808Y419482D01*
X485092Y421566D01*
X481930Y422875D01*
X478536Y423322D01*
X475142Y422875D01*
X471980Y421566D01*
X469264Y419482D01*
X467180Y416766D01*
X465871Y413604D01*
X465424Y410210D01*
X465871Y406816D01*
X467180Y403654D01*
X469264Y400938D01*
X471980Y398854D01*
X473182Y398357D01*
Y281940D01*
X473609Y279794D01*
X474825Y277975D01*
X512925Y239875D01*
X514744Y238659D01*
X516890Y238232D01*
X560287D01*
X564622Y233897D01*
Y225630D01*
X559730D01*
Y203630D01*
X565642D01*
Y186760D01*
X558720D01*
Y163760D01*
X565242D01*
Y157902D01*
X565053Y157852D01*
X562232Y156222D01*
X559928Y153918D01*
X558298Y151097D01*
X557455Y147949D01*
Y144691D01*
X558298Y141543D01*
X559928Y138722D01*
X562232Y136418D01*
X565053Y134788D01*
X568201Y133945D01*
X571459D01*
X574607Y134788D01*
X577428Y136418D01*
X579732Y138722D01*
X581362Y141543D01*
X582205Y144691D01*
Y147949D01*
X581362Y151097D01*
X579732Y153918D01*
X577428Y156222D01*
X574607Y157852D01*
X574418Y157902D01*
Y163760D01*
X581720D01*
Y186760D01*
X574818D01*
Y203630D01*
X580730D01*
Y225630D01*
X575838D01*
Y236220D01*
X575411Y238366D01*
X574195Y240185D01*
X566575Y247805D01*
X564756Y249021D01*
X562610Y249448D01*
X519213D01*
X484398Y284263D01*
Y398567D01*
X485092Y398854D01*
X487808Y400938D01*
X489892Y403654D01*
X490676Y405547D01*
X492050D01*
X492835Y403654D01*
X494918Y400938D01*
X497634Y398854D01*
X498582Y398462D01*
Y280670D01*
X499009Y278524D01*
X500225Y276705D01*
X523085Y253845D01*
X524904Y252629D01*
X527050Y252202D01*
X754597D01*
X779900Y226900D01*
X779373Y225630D01*
X759600D01*
Y220238D01*
X695960D01*
X693814Y219811D01*
X691995Y218595D01*
X688185Y214785D01*
X686969Y212966D01*
X686542Y210820D01*
Y115570D01*
X686969Y113424D01*
X688185Y111605D01*
X690570Y109220D01*
X636487Y55138D01*
X310320D01*
Y60130D01*
X310320D01*
X309950Y61022D01*
X457950Y209022D01*
X529730D01*
Y203630D01*
X550730D01*
Y225630D01*
X529730D01*
Y220238D01*
X457950D01*
X409468Y268720D01*
Y412967D01*
X460793Y464292D01*
X899377D01*
X940295Y423375D01*
X939575Y422298D01*
X939264Y422427D01*
X937260Y422691D01*
Y410210D01*
Y397729D01*
X939264Y397993D01*
X942314Y399256D01*
X944934Y401266D01*
X946944Y403886D01*
X947754Y405842D01*
X949128D01*
X950034Y403654D01*
X952118Y400938D01*
X954834Y398854D01*
X957996Y397545D01*
X961390Y397098D01*
X964784Y397545D01*
X967946Y398854D01*
X970662Y400938D01*
X972746Y403654D01*
X974055Y406816D01*
X974502Y410210D01*
X974055Y413604D01*
X972746Y416766D01*
X970662Y419482D01*
X967946Y421566D01*
X964784Y422875D01*
X961390Y423322D01*
X957996Y422875D01*
X957048Y422483D01*
X905665Y473865D01*
X903846Y475081D01*
X901700Y475508D01*
X535089D01*
Y550608D01*
X536038Y551001D01*
X538753Y553084D01*
X540837Y555800D01*
X541494Y557387D01*
X542869D01*
X543526Y555800D01*
X545610Y553084D01*
X548325Y551001D01*
X551488Y549691D01*
X554882Y549244D01*
X558275Y549691D01*
X561438Y551001D01*
X564153Y553084D01*
X566237Y555800D01*
X566894Y557387D01*
X568269D01*
X568926Y555800D01*
X571010Y553084D01*
X573725Y551001D01*
X576888Y549691D01*
X580281Y549244D01*
X583675Y549691D01*
X586838Y551001D01*
X589553Y553084D01*
X591637Y555800D01*
X592294Y557387D01*
X593669D01*
X594326Y555800D01*
X596410Y553084D01*
X599125Y551001D01*
X602288Y549691D01*
X605681Y549244D01*
X609075Y549691D01*
X612238Y551001D01*
X614953Y553084D01*
X617037Y555800D01*
X617694Y557387D01*
X619069D01*
X619726Y555800D01*
X621810Y553084D01*
X624525Y551001D01*
X627688Y549691D01*
X631082Y549244D01*
X634475Y549691D01*
X637638Y551001D01*
X640353Y553084D01*
X642437Y555800D01*
X643094Y557387D01*
X644469D01*
X645126Y555800D01*
X647210Y553084D01*
X649925Y551001D01*
X653088Y549691D01*
X656481Y549244D01*
X659875Y549691D01*
X663038Y551001D01*
X665753Y553084D01*
X667837Y555800D01*
X668494Y557387D01*
X669869D01*
X670526Y555800D01*
X672610Y553084D01*
X675325Y551001D01*
X678488Y549691D01*
X681881Y549244D01*
X685275Y549691D01*
X688438Y551001D01*
X691153Y553084D01*
X693237Y555800D01*
X693894Y557387D01*
X695269D01*
X695926Y555800D01*
X698010Y553084D01*
X700725Y551001D01*
X703888Y549691D01*
X707281Y549244D01*
X710675Y549691D01*
X713838Y551001D01*
X716553Y553084D01*
X718637Y555800D01*
X719294Y557387D01*
X720669D01*
X721326Y555800D01*
X723410Y553084D01*
X726125Y551001D01*
X729288Y549691D01*
X732682Y549244D01*
X736075Y549691D01*
X739238Y551001D01*
X741953Y553084D01*
X744037Y555800D01*
X744694Y557387D01*
X746069D01*
X746726Y555800D01*
X748810Y553084D01*
X751525Y551001D01*
X754688Y549691D01*
X758082Y549244D01*
X761475Y549691D01*
X764638Y551001D01*
X767353Y553084D01*
X769437Y555800D01*
X770094Y557387D01*
X771469D01*
X772126Y555800D01*
X774210Y553084D01*
X776925Y551001D01*
X780088Y549691D01*
X783482Y549244D01*
X786875Y549691D01*
X790038Y551001D01*
X792753Y553084D01*
X794837Y555800D01*
X795494Y557387D01*
X796869D01*
X797526Y555800D01*
X799610Y553084D01*
X802325Y551001D01*
X805488Y549691D01*
X808882Y549244D01*
X812275Y549691D01*
X815438Y551001D01*
X818153Y553084D01*
X820237Y555800D01*
X820894Y557387D01*
X822269D01*
X822926Y555800D01*
X825010Y553084D01*
X827725Y551001D01*
X830888Y549691D01*
X834281Y549244D01*
X837675Y549691D01*
X840838Y551001D01*
X843553Y553084D01*
X845637Y555800D01*
X846294Y557387D01*
X847669D01*
X848326Y555800D01*
X850410Y553084D01*
X853125Y551001D01*
X856288Y549691D01*
X859681Y549244D01*
X863075Y549691D01*
X866238Y551001D01*
X868953Y553084D01*
X871037Y555800D01*
X871694Y557387D01*
X873069D01*
X873726Y555800D01*
X875810Y553084D01*
X878525Y551001D01*
X881688Y549691D01*
X885081Y549244D01*
X888475Y549691D01*
X891638Y551001D01*
X894353Y553084D01*
X896437Y555800D01*
X897094Y557387D01*
X898469D01*
X899126Y555800D01*
X901210Y553084D01*
X903925Y551001D01*
X907088Y549691D01*
X910481Y549244D01*
X913875Y549691D01*
X917038Y551001D01*
X919753Y553084D01*
X921837Y555800D01*
X922494Y557387D01*
X923869D01*
X924526Y555800D01*
X926610Y553084D01*
X929325Y551001D01*
X932488Y549691D01*
X935882Y549244D01*
X939275Y549691D01*
X942438Y551001D01*
X945153Y553084D01*
X947237Y555800D01*
X947894Y557387D01*
X949269D01*
X949926Y555800D01*
X952010Y553084D01*
X954725Y551001D01*
X957888Y549691D01*
X961282Y549244D01*
X964675Y549691D01*
X967838Y551001D01*
X970553Y553084D01*
X972637Y555800D01*
X973947Y558962D01*
X974394Y562356D01*
X973947Y565750D01*
X972637Y568912D01*
X970553Y571628D01*
X967838Y573712D01*
X964675Y575021D01*
X961282Y575468D01*
X957888Y575021D01*
X954725Y573712D01*
X952010Y571628D01*
X949926Y568912D01*
X949269Y567325D01*
X947894D01*
X947237Y568912D01*
X945153Y571628D01*
X942438Y573712D01*
X939275Y575021D01*
X935882Y575468D01*
X932488Y575021D01*
X929325Y573712D01*
X926610Y571628D01*
X924526Y568912D01*
X923869Y567325D01*
X922494D01*
X921837Y568912D01*
X919753Y571628D01*
X917038Y573712D01*
X913875Y575021D01*
X910481Y575468D01*
X907088Y575021D01*
X903925Y573712D01*
X901210Y571628D01*
X899126Y568912D01*
X898469Y567325D01*
X897094D01*
X896437Y568912D01*
X894353Y571628D01*
X891638Y573712D01*
X888475Y575021D01*
X885081Y575468D01*
X881688Y575021D01*
X878525Y573712D01*
X875810Y571628D01*
X873726Y568912D01*
X873069Y567325D01*
X871694D01*
X871037Y568912D01*
X868953Y571628D01*
X866238Y573712D01*
X863075Y575021D01*
X859681Y575468D01*
X856288Y575021D01*
X853125Y573712D01*
X850410Y571628D01*
X848326Y568912D01*
X847669Y567325D01*
X846294D01*
X845637Y568912D01*
X843553Y571628D01*
X840838Y573712D01*
X837675Y575021D01*
X834281Y575468D01*
X830888Y575021D01*
X827725Y573712D01*
X825010Y571628D01*
X822926Y568912D01*
X822269Y567325D01*
X820894D01*
X820237Y568912D01*
X818153Y571628D01*
X815438Y573712D01*
X812275Y575021D01*
X808882Y575468D01*
X805488Y575021D01*
X802325Y573712D01*
X799610Y571628D01*
X797526Y568912D01*
X796869Y567325D01*
X795494D01*
X794837Y568912D01*
X792753Y571628D01*
X790038Y573712D01*
X786875Y575021D01*
X783482Y575468D01*
X780088Y575021D01*
X776925Y573712D01*
X774210Y571628D01*
X772126Y568912D01*
X771469Y567325D01*
X770094D01*
X769437Y568912D01*
X767353Y571628D01*
X764638Y573712D01*
X761475Y575021D01*
X758082Y575468D01*
X754688Y575021D01*
X751525Y573712D01*
X748810Y571628D01*
X746726Y568912D01*
X746069Y567325D01*
X744694D01*
X744037Y568912D01*
X741953Y571628D01*
X739238Y573712D01*
X736075Y575021D01*
X732682Y575468D01*
X729288Y575021D01*
X726125Y573712D01*
X723410Y571628D01*
X721326Y568912D01*
X720669Y567325D01*
X719294D01*
X718637Y568912D01*
X716553Y571628D01*
X713838Y573712D01*
X712998Y574059D01*
Y595630D01*
X712571Y597776D01*
X711355Y599595D01*
X703735Y607215D01*
X701916Y608431D01*
X699770Y608858D01*
D02*
G37*
G36*
X477411Y574837D02*
X475408Y574573D01*
X472357Y573310D01*
X469738Y571300D01*
X467728Y568680D01*
X466464Y565630D01*
X466200Y563626D01*
X477411D01*
Y574837D01*
D02*
G37*
G36*
X479952D02*
Y562356D01*
Y549875D01*
X481955Y550139D01*
X485006Y551402D01*
X487625Y553412D01*
X489635Y556032D01*
X490694Y558589D01*
X492069D01*
X493128Y556032D01*
X495138Y553412D01*
X497757Y551402D01*
X500808Y550139D01*
X502812Y549875D01*
Y562356D01*
Y574837D01*
X500808Y574573D01*
X497757Y573310D01*
X495138Y571300D01*
X493128Y568680D01*
X492069Y566123D01*
X490694D01*
X489635Y568680D01*
X487625Y571300D01*
X485006Y573310D01*
X481955Y574573D01*
X479952Y574837D01*
D02*
G37*
G36*
X477411Y561086D02*
X466200D01*
X466464Y559082D01*
X467728Y556032D01*
X469738Y553412D01*
X472357Y551402D01*
X475408Y550139D01*
X477411Y549875D01*
Y561086D01*
D02*
G37*
G36*
X884800Y344761D02*
X861300D01*
X858409Y344477D01*
X855628Y343633D01*
X853066Y342263D01*
X850820Y340420D01*
X848977Y338174D01*
X847607Y335612D01*
X846763Y332831D01*
X846479Y329940D01*
X846763Y327048D01*
X847607Y324268D01*
X848977Y321706D01*
X850820Y319460D01*
X853066Y317617D01*
X855628Y316247D01*
X858409Y315403D01*
X861300Y315119D01*
X884800D01*
X887691Y315403D01*
X890472Y316247D01*
X893034Y317617D01*
X895280Y319460D01*
X897123Y321706D01*
X898493Y324268D01*
X899337Y327048D01*
X899621Y329940D01*
X899337Y332831D01*
X898493Y335612D01*
X897123Y338174D01*
X895280Y340420D01*
X893034Y342263D01*
X890472Y343633D01*
X887691Y344477D01*
X884800Y344761D01*
D02*
G37*
G36*
X545592Y314325D02*
X536702D01*
Y304800D01*
X545592D01*
Y314325D01*
D02*
G37*
G36*
X724280Y314070D02*
X715010D01*
Y304800D01*
X724280D01*
Y314070D01*
D02*
G37*
G36*
X712470D02*
X703200D01*
Y304800D01*
X712470D01*
Y314070D01*
D02*
G37*
G36*
X534162Y314325D02*
X525272D01*
Y304800D01*
X534162D01*
Y314325D01*
D02*
G37*
G36*
X724280Y302260D02*
X715010D01*
Y292990D01*
X724280D01*
Y302260D01*
D02*
G37*
G36*
X712470D02*
X703200D01*
Y292990D01*
X712470D01*
Y302260D01*
D02*
G37*
G36*
X545592D02*
X536702D01*
Y292735D01*
X545592D01*
Y302260D01*
D02*
G37*
G36*
X534162D02*
X525272D01*
Y292735D01*
X534162D01*
Y302260D01*
D02*
G37*
G36*
X582120Y314785D02*
X560880D01*
Y292275D01*
X582120D01*
Y298942D01*
X614820D01*
Y292530D01*
X635820D01*
Y314530D01*
X614820D01*
Y308118D01*
X582120D01*
Y314785D01*
D02*
G37*
G36*
X909320Y304421D02*
Y283210D01*
X920698D01*
Y291940D01*
X920267Y295214D01*
X919004Y298264D01*
X916994Y300884D01*
X914374Y302894D01*
X911324Y304157D01*
X909320Y304421D01*
D02*
G37*
G36*
X906780D02*
X904776Y304157D01*
X901726Y302894D01*
X899106Y300884D01*
X897096Y298264D01*
X895833Y295214D01*
X895402Y291940D01*
Y283210D01*
X906780D01*
Y304421D01*
D02*
G37*
G36*
X920698Y280670D02*
X909320D01*
Y259459D01*
X911324Y259723D01*
X914374Y260986D01*
X916994Y262996D01*
X919004Y265616D01*
X920267Y268666D01*
X920698Y271940D01*
Y280670D01*
D02*
G37*
G36*
X906780D02*
X895402D01*
Y271940D01*
X895833Y268666D01*
X897096Y265616D01*
X899106Y262996D01*
X901726Y260986D01*
X904776Y259723D01*
X906780Y259459D01*
Y280670D01*
D02*
G37*
G36*
X848050Y305052D02*
X844656Y304605D01*
X841494Y303295D01*
X838778Y301212D01*
X836694Y298496D01*
X835385Y295334D01*
X834938Y291940D01*
Y271940D01*
X835385Y268546D01*
X836694Y265384D01*
X838778Y262668D01*
X841494Y260585D01*
X844656Y259275D01*
X848050Y258828D01*
X851444Y259275D01*
X854606Y260585D01*
X857322Y262668D01*
X859406Y265384D01*
X860715Y268546D01*
X861162Y271940D01*
Y291940D01*
X860715Y295334D01*
X859406Y298496D01*
X857322Y301212D01*
X854606Y303295D01*
X851444Y304605D01*
X848050Y305052D01*
D02*
G37*
G36*
X778130Y186300D02*
X768360D01*
Y176530D01*
X778130D01*
Y186300D01*
D02*
G37*
G36*
X765820D02*
X756050D01*
Y176530D01*
X765820D01*
Y186300D01*
D02*
G37*
G36*
X548260D02*
X538490D01*
Y176530D01*
X548260D01*
Y186300D01*
D02*
G37*
G36*
X535950D02*
X526180D01*
Y176530D01*
X535950D01*
Y186300D01*
D02*
G37*
G36*
X778130Y173990D02*
X768360D01*
Y164220D01*
X778130D01*
Y173990D01*
D02*
G37*
G36*
X765820D02*
X756050D01*
Y164220D01*
X765820D01*
Y173990D01*
D02*
G37*
G36*
X548260D02*
X538490D01*
Y164220D01*
X548260D01*
Y173990D01*
D02*
G37*
G36*
X535950D02*
X526180D01*
Y164220D01*
X535950D01*
Y173990D01*
D02*
G37*
G36*
X521399Y158235D02*
X521100D01*
Y147590D01*
X531745D01*
Y147889D01*
X530933Y150919D01*
X529364Y153636D01*
X527146Y155854D01*
X524429Y157423D01*
X521399Y158235D01*
D02*
G37*
G36*
X518560D02*
X518261D01*
X515231Y157423D01*
X512514Y155854D01*
X510296Y153636D01*
X508727Y150919D01*
X507915Y147889D01*
Y147590D01*
X518560D01*
Y158235D01*
D02*
G37*
G36*
X751269Y156965D02*
X750970D01*
Y146320D01*
X761615D01*
Y146619D01*
X760803Y149649D01*
X759234Y152366D01*
X757016Y154584D01*
X754299Y156153D01*
X751269Y156965D01*
D02*
G37*
G36*
X748430D02*
X748131D01*
X745101Y156153D01*
X742384Y154584D01*
X740166Y152366D01*
X738597Y149649D01*
X737785Y146619D01*
Y146320D01*
X748430D01*
Y156965D01*
D02*
G37*
G36*
X531745Y145050D02*
X521100D01*
Y134405D01*
X521399D01*
X524429Y135217D01*
X527146Y136786D01*
X529364Y139004D01*
X530933Y141721D01*
X531745Y144751D01*
Y145050D01*
D02*
G37*
G36*
X518560D02*
X507915D01*
Y144751D01*
X508727Y141721D01*
X510296Y139004D01*
X512514Y136786D01*
X515231Y135217D01*
X518261Y134405D01*
X518560D01*
Y145050D01*
D02*
G37*
G36*
X761615Y143780D02*
X750970D01*
Y133135D01*
X751269D01*
X754299Y133947D01*
X757016Y135516D01*
X759234Y137734D01*
X760803Y140451D01*
X761615Y143481D01*
Y143780D01*
D02*
G37*
G36*
X748430D02*
X737785D01*
Y143481D01*
X738597Y140451D01*
X740166Y137734D01*
X742384Y135516D01*
X745101Y133947D01*
X748131Y133135D01*
X748430D01*
Y143780D01*
D02*
G37*
G36*
X955218Y143080D02*
X952322D01*
X949524Y142330D01*
X947016Y140882D01*
X944968Y138834D01*
X943520Y136326D01*
X942770Y133528D01*
Y130632D01*
X943520Y127834D01*
X944968Y125326D01*
X947016Y123278D01*
X949524Y121830D01*
X952322Y121080D01*
X955218D01*
X958016Y121830D01*
X960524Y123278D01*
X962572Y125326D01*
X964020Y127834D01*
X964770Y130632D01*
Y133528D01*
X964020Y136326D01*
X962572Y138834D01*
X960524Y140882D01*
X958016Y142330D01*
X955218Y143080D01*
D02*
G37*
G36*
X964310Y117220D02*
X955040D01*
Y107950D01*
X964310D01*
Y117220D01*
D02*
G37*
G36*
X952500D02*
X943230D01*
Y107950D01*
X952500D01*
Y117220D01*
D02*
G37*
G36*
X964310Y105410D02*
X955040D01*
Y96140D01*
X964310D01*
Y105410D01*
D02*
G37*
G36*
X952500D02*
X943230D01*
Y96140D01*
X952500D01*
Y105410D01*
D02*
G37*
G36*
X591443Y96070D02*
X588217D01*
X585102Y95235D01*
X582308Y93622D01*
X580028Y91342D01*
X578415Y88548D01*
X577580Y85433D01*
Y82207D01*
X578415Y79092D01*
X580028Y76298D01*
X582308Y74018D01*
X585102Y72405D01*
X588217Y71570D01*
X591443D01*
X594558Y72405D01*
X597352Y74018D01*
X599632Y76298D01*
X601245Y79092D01*
X602080Y82207D01*
Y85433D01*
X601245Y88548D01*
X599632Y91342D01*
X597352Y93622D01*
X594558Y95235D01*
X591443Y96070D01*
D02*
G37*
G36*
X501443D02*
X498217D01*
X495102Y95235D01*
X492308Y93622D01*
X490028Y91342D01*
X488415Y88548D01*
X487580Y85433D01*
Y82207D01*
X488415Y79092D01*
X490028Y76298D01*
X492308Y74018D01*
X495102Y72405D01*
X498217Y71570D01*
X501443D01*
X504558Y72405D01*
X507352Y74018D01*
X509632Y76298D01*
X511245Y79092D01*
X512080Y82207D01*
Y85433D01*
X511245Y88548D01*
X509632Y91342D01*
X507352Y93622D01*
X504558Y95235D01*
X501443Y96070D01*
D02*
G37*
G36*
X821313Y94800D02*
X818087D01*
X814972Y93965D01*
X812178Y92352D01*
X809898Y90072D01*
X808285Y87278D01*
X807450Y84163D01*
Y80937D01*
X808285Y77822D01*
X809898Y75028D01*
X812178Y72748D01*
X814972Y71135D01*
X818087Y70300D01*
X821313D01*
X824428Y71135D01*
X827222Y72748D01*
X829502Y75028D01*
X831115Y77822D01*
X831950Y80937D01*
Y84163D01*
X831115Y87278D01*
X829502Y90072D01*
X827222Y92352D01*
X824428Y93965D01*
X821313Y94800D01*
D02*
G37*
G36*
X731313D02*
X728087D01*
X724972Y93965D01*
X722178Y92352D01*
X719898Y90072D01*
X718285Y87278D01*
X717450Y84163D01*
Y80937D01*
X718285Y77822D01*
X719898Y75028D01*
X722178Y72748D01*
X724972Y71135D01*
X728087Y70300D01*
X731313D01*
X734428Y71135D01*
X737222Y72748D01*
X739502Y75028D01*
X741115Y77822D01*
X741950Y80937D01*
Y84163D01*
X741115Y87278D01*
X739502Y90072D01*
X737222Y92352D01*
X734428Y93965D01*
X731313Y94800D01*
D02*
G37*
G36*
X250255Y59670D02*
X250190D01*
Y50800D01*
X259060D01*
Y50865D01*
X258369Y53444D01*
X257034Y55756D01*
X255146Y57644D01*
X252834Y58979D01*
X250255Y59670D01*
D02*
G37*
G36*
X247650D02*
X247585D01*
X245006Y58979D01*
X242694Y57644D01*
X240806Y55756D01*
X239471Y53444D01*
X238780Y50865D01*
Y50800D01*
X247650D01*
Y59670D01*
D02*
G37*
G36*
X259060Y48260D02*
X250190D01*
Y39390D01*
X250255D01*
X252834Y40081D01*
X255146Y41416D01*
X257034Y43304D01*
X258369Y45616D01*
X259060Y48195D01*
Y48260D01*
D02*
G37*
G36*
X247650D02*
X238780D01*
Y48195D01*
X239471Y45616D01*
X240806Y43304D01*
X242694Y41416D01*
X245006Y40081D01*
X247585Y39390D01*
X247650D01*
Y48260D01*
D02*
G37*
G36*
X275716Y60130D02*
X272924D01*
X270229Y59408D01*
X267812Y58012D01*
X265838Y56038D01*
X264442Y53621D01*
X263720Y50925D01*
Y48134D01*
X264442Y45439D01*
X265838Y43021D01*
X267812Y41048D01*
X270229Y39652D01*
X272924Y38930D01*
X275716D01*
X278411Y39652D01*
X280828Y41048D01*
X282802Y43021D01*
X284198Y45439D01*
X284920Y48134D01*
Y50925D01*
X284198Y53621D01*
X282802Y56038D01*
X280828Y58012D01*
X278411Y59408D01*
X275716Y60130D01*
D02*
G37*
G36*
X224916D02*
X222125D01*
X219429Y59408D01*
X217012Y58012D01*
X215038Y56038D01*
X213642Y53621D01*
X212920Y50925D01*
Y48134D01*
X213642Y45439D01*
X215038Y43021D01*
X217012Y41048D01*
X219429Y39652D01*
X222125Y38930D01*
X224916D01*
X227611Y39652D01*
X230028Y41048D01*
X232002Y43021D01*
X233398Y45439D01*
X234120Y48134D01*
Y50925D01*
X233398Y53621D01*
X232002Y56038D01*
X230028Y58012D01*
X227611Y59408D01*
X224916Y60130D01*
D02*
G37*
G36*
X174116D02*
X171325D01*
X168629Y59408D01*
X166211Y58012D01*
X164238Y56038D01*
X162842Y53621D01*
X162120Y50925D01*
Y48134D01*
X162842Y45439D01*
X164238Y43021D01*
X166211Y41048D01*
X168629Y39652D01*
X171325Y38930D01*
X174116D01*
X176811Y39652D01*
X179228Y41048D01*
X181202Y43021D01*
X182598Y45439D01*
X183320Y48134D01*
Y50925D01*
X182598Y53621D01*
X181202Y56038D01*
X179228Y58012D01*
X176811Y59408D01*
X174116Y60130D01*
D02*
G37*
G36*
X148715D02*
X145925D01*
X143229Y59408D01*
X140812Y58012D01*
X138838Y56038D01*
X137442Y53621D01*
X136720Y50925D01*
Y48134D01*
X137442Y45439D01*
X138838Y43021D01*
X140812Y41048D01*
X143229Y39652D01*
X145925Y38930D01*
X148715D01*
X151411Y39652D01*
X153828Y41048D01*
X155802Y43021D01*
X157198Y45439D01*
X157920Y48134D01*
Y50925D01*
X157198Y53621D01*
X155802Y56038D01*
X153828Y58012D01*
X151411Y59408D01*
X148715Y60130D01*
D02*
G37*
G36*
X123315D02*
X120525D01*
X117829Y59408D01*
X115412Y58012D01*
X113438Y56038D01*
X112042Y53621D01*
X111320Y50925D01*
Y48134D01*
X112042Y45439D01*
X113438Y43021D01*
X115412Y41048D01*
X117829Y39652D01*
X120525Y38930D01*
X123315D01*
X126011Y39652D01*
X128428Y41048D01*
X130402Y43021D01*
X131798Y45439D01*
X132520Y48134D01*
Y50925D01*
X131798Y53621D01*
X130402Y56038D01*
X128428Y58012D01*
X126011Y59408D01*
X123315Y60130D01*
D02*
G37*
G36*
X531745Y33235D02*
X521100D01*
Y22590D01*
X531745D01*
Y33235D01*
D02*
G37*
G36*
X518560D02*
X507915D01*
Y22590D01*
X518560D01*
Y33235D01*
D02*
G37*
G36*
X761615Y31965D02*
X750970D01*
Y21320D01*
X761615D01*
Y31965D01*
D02*
G37*
G36*
X748430D02*
X737785D01*
Y21320D01*
X748430D01*
Y31965D01*
D02*
G37*
G36*
X277750Y28820D02*
X267980D01*
Y19050D01*
X277750D01*
Y28820D01*
D02*
G37*
G36*
X265440D02*
X255670D01*
Y19050D01*
X265440D01*
Y28820D01*
D02*
G37*
G36*
X40304Y66100D02*
X35896D01*
X31543Y65410D01*
X27352Y64049D01*
X23425Y62048D01*
X19859Y59457D01*
X16743Y56341D01*
X14152Y52775D01*
X12151Y48848D01*
X10790Y44657D01*
X10100Y40304D01*
Y35896D01*
X10790Y31543D01*
X12151Y27352D01*
X14152Y23425D01*
X16743Y19859D01*
X19859Y16743D01*
X23425Y14152D01*
X27352Y12151D01*
X31543Y10790D01*
X35896Y10100D01*
X40304D01*
X44657Y10790D01*
X48848Y12151D01*
X52775Y14152D01*
X56341Y16743D01*
X59457Y19859D01*
X62048Y23425D01*
X64049Y27352D01*
X65410Y31543D01*
X66100Y35896D01*
Y40304D01*
X65410Y44657D01*
X64049Y48848D01*
X62048Y52775D01*
X59457Y56341D01*
X56341Y59457D01*
X52775Y62048D01*
X48848Y64049D01*
X44657Y65410D01*
X40304Y66100D01*
D02*
G37*
G36*
X531745Y20050D02*
X521100D01*
Y9405D01*
X531745D01*
Y20050D01*
D02*
G37*
G36*
X518560D02*
X507915D01*
Y9405D01*
X518560D01*
Y20050D01*
D02*
G37*
G36*
X571459Y33695D02*
X568201D01*
X565053Y32852D01*
X562232Y31222D01*
X559928Y28918D01*
X558298Y26097D01*
X557455Y22949D01*
Y19691D01*
X558298Y16543D01*
X559928Y13722D01*
X562232Y11418D01*
X565053Y9788D01*
X568201Y8945D01*
X571459D01*
X574607Y9788D01*
X577428Y11418D01*
X579732Y13722D01*
X581362Y16543D01*
X582205Y19691D01*
Y22949D01*
X581362Y26097D01*
X579732Y28918D01*
X577428Y31222D01*
X574607Y32852D01*
X571459Y33695D01*
D02*
G37*
G36*
X761615Y18780D02*
X750970D01*
Y8135D01*
X761615D01*
Y18780D01*
D02*
G37*
G36*
X748430D02*
X737785D01*
Y8135D01*
X748430D01*
Y18780D01*
D02*
G37*
G36*
X801329Y32425D02*
X798071D01*
X794923Y31582D01*
X792102Y29952D01*
X789798Y27648D01*
X788168Y24827D01*
X787325Y21679D01*
Y18421D01*
X788168Y15273D01*
X789798Y12452D01*
X792102Y10148D01*
X794923Y8518D01*
X798071Y7675D01*
X801329D01*
X804477Y8518D01*
X807298Y10148D01*
X809602Y12452D01*
X811232Y15273D01*
X812075Y18421D01*
Y21679D01*
X811232Y24827D01*
X809602Y27648D01*
X807298Y29952D01*
X804477Y31582D01*
X801329Y32425D01*
D02*
G37*
G36*
X277750Y16510D02*
X267980D01*
Y6740D01*
X277750D01*
Y16510D01*
D02*
G37*
G36*
X265440D02*
X255670D01*
Y6740D01*
X265440D01*
Y16510D01*
D02*
G37*
G36*
X948354Y62290D02*
X943946D01*
X939593Y61600D01*
X935402Y60239D01*
X931475Y58238D01*
X927909Y55647D01*
X924793Y52531D01*
X922202Y48965D01*
X920201Y45038D01*
X918839Y40847D01*
X918150Y36494D01*
Y32086D01*
X918839Y27733D01*
X920201Y23542D01*
X922202Y19615D01*
X924793Y16049D01*
X927909Y12933D01*
X931475Y10342D01*
X935402Y8341D01*
X939593Y6980D01*
X943946Y6290D01*
X948354D01*
X952707Y6980D01*
X956898Y8341D01*
X960825Y10342D01*
X964391Y12933D01*
X967507Y16049D01*
X970098Y19615D01*
X972099Y23542D01*
X973460Y27733D01*
X974150Y32086D01*
Y36494D01*
X973460Y40847D01*
X972099Y45038D01*
X970098Y48965D01*
X967507Y52531D01*
X964391Y55647D01*
X960825Y58238D01*
X956898Y60239D01*
X952707Y61600D01*
X948354Y62290D01*
D02*
G37*
%LPD*%
G36*
X823035Y403654D02*
X825118Y400938D01*
X827834Y398854D01*
X828782Y398462D01*
Y373769D01*
X829209Y371623D01*
X830425Y369804D01*
X832671Y367558D01*
X832145Y366288D01*
X815123D01*
X814598Y366813D01*
Y398462D01*
X815546Y398854D01*
X818262Y400938D01*
X820346Y403654D01*
X821003Y405241D01*
X822377D01*
X823035Y403654D01*
D02*
G37*
G36*
X619835D02*
X621918Y400938D01*
X624634Y398854D01*
X625582Y398462D01*
Y369570D01*
X626009Y367424D01*
X627225Y365605D01*
X630352Y362478D01*
X629826Y361208D01*
X619543D01*
X611398Y369353D01*
Y398462D01*
X612346Y398854D01*
X615062Y400938D01*
X617146Y403654D01*
X617803Y405241D01*
X619177D01*
X619835Y403654D01*
D02*
G37*
G36*
X963402Y296127D02*
Y190600D01*
X962132Y190074D01*
X960524Y191682D01*
X959378Y192344D01*
Y297180D01*
X959086Y298648D01*
X960256Y299273D01*
X963402Y296127D01*
D02*
G37*
D10*
X800100Y175270D02*
Y215130D01*
X799700Y174870D02*
X800100Y175270D01*
X570230D02*
Y215130D01*
X570220Y175260D02*
X570230Y175270D01*
X569830Y146320D02*
Y174870D01*
X570220Y175260D01*
X794100Y221130D02*
X800100Y215130D01*
X793600Y221130D02*
X794100D01*
X478536Y410210D02*
X478790Y409956D01*
X571500Y303530D02*
X625320D01*
X799700Y145050D02*
Y174870D01*
D16*
X625320Y303530D02*
D03*
X655320D02*
D03*
X570230Y214630D02*
D03*
X540230D02*
D03*
X800100D02*
D03*
X770100D02*
D03*
D17*
X571500Y303530D02*
D03*
X535432D02*
D03*
D18*
X767090Y175260D02*
D03*
X800090D02*
D03*
X537220D02*
D03*
X570220D02*
D03*
X299710Y17780D02*
D03*
X266710D02*
D03*
D34*
X527050Y257810D02*
X756920D01*
X793600Y220166D02*
X793635Y220130D01*
X793600Y220166D02*
Y221130D01*
X756920Y257810D02*
X793600Y221130D01*
X969010Y160654D02*
Y298450D01*
X954015Y157725D02*
X966081D01*
X896620Y370840D02*
X969010Y298450D01*
X966081Y157725D02*
X969010Y160654D01*
X953770Y157480D02*
X954015Y157725D01*
X529590Y469900D02*
X901700D01*
X458470D02*
X529590D01*
X529482Y470009D02*
X529590Y469900D01*
X529482Y470009D02*
Y562356D01*
X638810Y49530D02*
X698500Y109220D01*
X299720Y49530D02*
X638810D01*
X692150Y210820D02*
X695960Y214630D01*
X692150Y115570D02*
Y210820D01*
X698500Y109220D02*
X826770D01*
X692150Y115570D02*
X698500Y109220D01*
X826770D02*
X830580Y113030D01*
Y216952D01*
X789940Y257592D02*
X830580Y216952D01*
X789940Y257592D02*
Y303530D01*
X695960Y214630D02*
X770100D01*
X299569Y49681D02*
Y58571D01*
Y49681D02*
X299720Y49530D01*
X299569Y58571D02*
X455628Y214630D01*
X403860Y266398D02*
X455628Y214630D01*
X540230D01*
X403860Y266398D02*
Y415290D01*
X299720Y17790D02*
Y49530D01*
X403860Y415290D02*
X458470Y469900D01*
X478790Y281940D02*
Y409956D01*
Y281940D02*
X516890Y243840D01*
X901700Y469900D02*
X961390Y410210D01*
Y410210D02*
Y410210D01*
X560070Y335280D02*
X643890D01*
X655320Y303530D02*
Y323850D01*
X643890Y335280D02*
X655320Y323850D01*
X554990Y340360D02*
Y410210D01*
Y340360D02*
X560070Y335280D01*
X605790Y367030D02*
X617220Y355600D01*
X605790Y367030D02*
Y410210D01*
X617220Y355600D02*
X734060D01*
X631190Y369570D02*
X635000Y365760D01*
X631190Y369570D02*
Y410210D01*
X635000Y365760D02*
X756920D01*
X734060Y355600D02*
X739140Y350520D01*
Y303530D02*
Y350520D01*
X764540Y303530D02*
Y358140D01*
X756920Y365760D02*
X764540Y358140D01*
X504190Y280670D02*
Y410210D01*
Y280670D02*
X527050Y257810D01*
X516890Y243840D02*
X562610D01*
X570230Y236220D01*
Y214630D02*
Y236220D01*
X768479Y216251D02*
X770100Y214630D01*
X707281Y562356D02*
X707390Y562464D01*
X699770Y603250D02*
X707390Y595630D01*
Y562464D02*
Y595630D01*
X342900Y603250D02*
X699770D01*
X299710Y17780D02*
X299720Y17790D01*
X198120Y458470D02*
X342900Y603250D01*
X198120Y49530D02*
Y458470D01*
X834390Y373769D02*
Y410210D01*
X837319Y370840D02*
X896620D01*
X834390Y373769D02*
X837319Y370840D01*
X812800Y360680D02*
X890270D01*
X808990Y364490D02*
X812800Y360680D01*
X890270D02*
X953770Y297180D01*
Y182880D02*
Y297180D01*
X808990Y364490D02*
Y410210D01*
D35*
X946150Y34290D02*
D03*
X41660Y655320D02*
D03*
X38100Y38100D02*
D03*
X949960Y655320D02*
D03*
D36*
X885190Y410210D02*
D03*
X910590D02*
D03*
X961390D02*
D03*
X859790D02*
D03*
X935990D02*
D03*
X834390D02*
D03*
X580281Y562356D02*
D03*
X478681D02*
D03*
X554882D02*
D03*
X529482D02*
D03*
X504081D02*
D03*
X605681D02*
D03*
X631082D02*
D03*
X681881D02*
D03*
X707281D02*
D03*
X732682D02*
D03*
X656481D02*
D03*
X758082D02*
D03*
X808882D02*
D03*
X961282D02*
D03*
X935882D02*
D03*
X910481D02*
D03*
X885081D02*
D03*
X783482D02*
D03*
X859681D02*
D03*
X834281D02*
D03*
X580390Y410210D02*
D03*
X478536D02*
D03*
X554990D02*
D03*
X529590D02*
D03*
X504190D02*
D03*
X605790D02*
D03*
X732790D02*
D03*
X808990D02*
D03*
X783590D02*
D03*
X758190D02*
D03*
X707390D02*
D03*
X681990D02*
D03*
X656590D02*
D03*
X631190D02*
D03*
D37*
X953770Y182880D02*
D03*
Y132080D02*
D03*
Y157480D02*
D03*
X739140Y303530D02*
D03*
X764540D02*
D03*
X789940D02*
D03*
D38*
X953770Y106680D02*
D03*
D39*
X713740Y303530D02*
D03*
D40*
X519830Y21320D02*
D03*
X749700Y20050D02*
D03*
D41*
X569830Y21320D02*
D03*
X519830Y146320D02*
D03*
X569830D02*
D03*
X799700Y20050D02*
D03*
X749700Y145050D02*
D03*
X799700D02*
D03*
D42*
X499830Y83820D02*
D03*
X589830D02*
D03*
X729700Y82550D02*
D03*
X819700D02*
D03*
D43*
X299720Y49530D02*
D03*
D44*
X274320D02*
D03*
X248920D02*
D03*
X223520D02*
D03*
X198120D02*
D03*
X172720D02*
D03*
X147320D02*
D03*
X121920D02*
D03*
D45*
X848050Y281940D02*
D03*
X908050D02*
D03*
D46*
X873050Y329940D02*
D03*
M02*
