M48
;Layer_Color=9474304
;FILE_FORMAT=4:4
METRIC,LZ
;TYPE=PLATED
T1F00S00C0.8000
T3F00S00C1.0000
T4F00S00C1.0200
T5F00S00C1.1000
T6F00S00C1.2500
T7F00S00C3.1000
;TYPE=NON_PLATED
T8F00S00C1.8500
%
T01
X0095377Y0010668
Y0013208
Y0015748
Y0018288
T03
X0080899Y0041021
X0083439
X0085979
X0088519
X0091059
X0093599
X0096139
X00961282Y00562356
X00935882
X00910481
X00885081
X00859681
X00834281
X00808882
X00783482
X00758082
X00732682
X00707281
X00681881
X00656481
X00631082
X00605681
X00580281
X00554882
X00529482
X00504081
X00478681
X00478536Y0041021
X0050419
X0052959
X0055499
X0058039
X0060579
X0063119
X0065659
X0068199
X0070739
X0073279
X0075819
X0078359
T04
X0012192Y0004953
X0014732
X0017272
X0019812
X0022352
X0024892
X0027432
X0029972
T05
X0071374Y0030353
X0073914
X0076454
X0078994
T06
X0051983Y0002132
X0056983
Y0014632
X0051983
X007497Y0014505
Y0002005
X007997
Y0014505
T07
X000381Y000381
X0094615Y0003429
X0094996Y0065532
X0004166
T08
X0049983Y0008382
X0058983
X007297Y0008255
X008197
M30
